<?xml version="1.0" encoding="UTF-8"?>
<svg width="24" height="24" viewBox="0 0 24 24" fill="none" xmlns="http://www.w3.org/2000/svg">
  <path d="M12 2C6.48 2 2 6.48 2 12C2 17.52 6.48 22 12 22C17.52 22 22 17.52 22 12C22 6.48 17.52 2 12 2ZM12 20C7.59 20 4 16.41 4 12C4 7.59 7.59 4 12 4C16.41 4 20 7.59 20 12C20 16.41 16.41 20 12 20Z" fill="currentColor"/>
  <path d="M12.31 11.14C10.54 10.71 9.5 10.16 9.5 9.2C9.5 8.24 10.54 7.69 12.31 7.26C13.08 7.05 13.95 6.89 14.8 6.78V5.5C13.95 5.61 13.08 5.77 12.31 5.98C10.54 6.41 9.5 6.96 9.5 7.92C9.5 8.88 10.54 9.43 12.31 9.86C13.08 10.07 13.95 10.23 14.8 10.34V11.62C13.95 11.51 13.08 11.35 12.31 11.14ZM12.31 13.74C10.54 13.31 9.5 12.76 9.5 11.8C9.5 10.84 10.54 10.29 12.31 9.86C13.08 9.65 13.95 9.49 14.8 9.38V8.1C13.95 8.21 13.08 8.37 12.31 8.58C10.54 9.01 9.5 9.56 9.5 10.52C9.5 11.48 10.54 12.03 12.31 12.46C13.08 12.67 13.95 12.83 14.8 12.94V14.22C13.95 14.11 13.08 13.95 12.31 13.74Z" fill="currentColor"/>
</svg> 